<mxfile host="app.diagrams.net" modified="2024-01-15T10:30:00.000Z" agent="5.0" etag="ghi789" version="22.1.16" type="device">
  <diagram name="Elara Data Flow" id="elara-dataflow">
    <mxGraphModel dx="1422" dy="794" grid="1" gridSize="10" guides="1" tooltips="1" connect="1" arrows="1" fold="1" page="1" pageScale="1" pageWidth="1169" pageHeight="827" math="0" shadow="0">
      <root>
        <mxCell id="0" />
        <mxCell id="1" parent="0" />
        
        <!-- Title -->
        <mxCell id="title" value="Elara Data Flow - File Upload & Processing" style="text;html=1;strokeColor=none;fillColor=none;align=center;verticalAlign=middle;whiteSpace=wrap;rounded=0;fontSize=20;fontStyle=1;" vertex="1" parent="1">
          <mxGeometry x="400" y="20" width="400" height="30" as="geometry" />
        </mxCell>
        
        <!-- User Upload -->
        <mxCell id="user" value="👤 User&#xa;(Admin)" style="rounded=1;whiteSpace=wrap;html=1;fillColor=#dae8fc;strokeColor=#6c8ebf;" vertex="1" parent="1">
          <mxGeometry x="50" y="80" width="100" height="60" as="geometry" />
        </mxCell>
        
        <!-- File Selection -->
        <mxCell id="file-select" value="📁 File Selection&#xa;Excel/CSV&#xa;Max 300MB" style="rounded=1;whiteSpace=wrap;html=1;fillColor=#fff2cc;strokeColor=#d6b656;" vertex="1" parent="1">
          <mxGeometry x="200" y="80" width="120" height="60" as="geometry" />
        </mxCell>
        
        <!-- Size Check -->
        <mxCell id="size-check" value="⚖️ Size Check" style="rhombus;whiteSpace=wrap;html=1;fillColor=#f8cecc;strokeColor=#b85450;" vertex="1" parent="1">
          <mxGeometry x="370" y="70" width="100" height="80" as="geometry" />
        </mxCell>
        
        <!-- Regular Upload -->
        <mxCell id="regular-upload" value="📤 Regular Upload&#xa;(&lt;50MB)" style="rounded=1;whiteSpace=wrap;html=1;fillColor=#d5e8d4;strokeColor=#82b366;" vertex="1" parent="1">
          <mxGeometry x="520" y="50" width="120" height="60" as="geometry" />
        </mxCell>
        
        <!-- Chunked Upload -->
        <mxCell id="chunked-upload" value="🔄 Chunked Upload&#xa;(>50MB)&#xa;10MB chunks" style="rounded=1;whiteSpace=wrap;html=1;fillColor=#ffe6cc;strokeColor=#d79b00;" vertex="1" parent="1">
          <mxGeometry x="520" y="130" width="120" height="60" as="geometry" />
        </mxCell>
        
        <!-- File Validation -->
        <mxCell id="validation" value="✅ File Validation&#xa;• Type check (.xls, .xlsx, .csv)&#xa;• Size validation&#xa;• Structure check" style="rounded=1;whiteSpace=wrap;html=1;fillColor=#e1d5e7;strokeColor=#9673a6;" vertex="1" parent="1">
          <mxGeometry x="700" y="80" width="160" height="80" as="geometry" />
        </mxCell>
        
        <!-- Sheet Selection -->
        <mxCell id="sheet-select" value="📋 Sheet Selection&#xa;(Excel only)" style="rounded=1;whiteSpace=wrap;html=1;fillColor=#fff2cc;strokeColor=#d6b656;" vertex="1" parent="1">
          <mxGeometry x="200" y="220" width="120" height="60" as="geometry" />
        </mxCell>
        
        <!-- Processing Decision -->
        <mxCell id="processing-decision" value="🤔 Processing&#xa;Method?" style="rhombus;whiteSpace=wrap;html=1;fillColor=#f8cecc;strokeColor=#b85450;" vertex="1" parent="1">
          <mxGeometry x="730" y="210" width="100" height="80" as="geometry" />
        </mxCell>
        
        <!-- Python Service -->
        <mxCell id="python-service" value="🐍 Python Service&#xa;(Primary)&#xa;• Pandas vectorization&#xa;• Ultra-fast processing&#xa;• 5-10x speed improvement" style="rounded=1;whiteSpace=wrap;html=1;fillColor=#fff2cc;strokeColor=#d6b656;" vertex="1" parent="1">
          <mxGeometry x="900" y="150" width="180" height="100" as="geometry" />
        </mxCell>
        
        <!-- Node.js Fallback -->
        <mxCell id="nodejs-fallback" value="⚡ Node.js Fallback&#xa;• XLSX library&#xa;• CSV parser&#xa;• Reliable processing" style="rounded=1;whiteSpace=wrap;html=1;fillColor=#dae8fc;strokeColor=#6c8ebf;" vertex="1" parent="1">
          <mxGeometry x="900" y="270" width="180" height="80" as="geometry" />
        </mxCell>
        
        <!-- Data Processing -->
        <mxCell id="data-processing" value="🔄 Data Processing&#xa;• Column mapping&#xa;• Data validation&#xa;• Type conversion&#xa;• Financial number parsing" style="rounded=1;whiteSpace=wrap;html=1;fillColor=#d5e8d4;strokeColor=#82b366;" vertex="1" parent="1">
          <mxGeometry x="700" y="380" width="160" height="100" as="geometry" />
        </mxCell>
        
        <!-- Database Service -->
        <mxCell id="db-service" value="💾 Database Service&#xa;• High-performance insertion&#xa;• Batch processing&#xa;• Connection pooling&#xa;• Transaction management" style="rounded=1;whiteSpace=wrap;html=1;fillColor=#ffe6cc;strokeColor=#d79b00;" vertex="1" parent="1">
          <mxGeometry x="450" y="380" width="180" height="100" as="geometry" />
        </mxCell>
        
        <!-- MySQL Database -->
        <mxCell id="mysql-db" value="🗄️ MySQL Database&#xa;dataset_records table&#xa;• 36+ columns&#xa;• Optimized indexes&#xa;• Foreign key constraints" style="shape=cylinder3;whiteSpace=wrap;html=1;boundedLbl=1;backgroundOutline=1;size=15;fillColor=#d5e8d4;strokeColor=#82b366;" vertex="1" parent="1">
          <mxGeometry x="450" y="520" width="180" height="100" as="geometry" />
        </mxCell>
        
        <!-- Progress Tracking -->
        <mxCell id="progress" value="📊 Progress Tracking&#xa;• Real-time updates&#xa;• Processing rate&#xa;• ETA calculation" style="rounded=1;whiteSpace=wrap;html=1;fillColor=#e1d5e7;strokeColor=#9673a6;" vertex="1" parent="1">
          <mxGeometry x="200" y="380" width="160" height="80" as="geometry" />
        </mxCell>
        
        <!-- Audit Trail -->
        <mxCell id="audit" value="📝 Audit Trail&#xa;• User actions&#xa;• Upload details&#xa;• Processing metrics&#xa;• Error logging" style="rounded=1;whiteSpace=wrap;html=1;fillColor=#f8cecc;strokeColor=#b85450;" vertex="1" parent="1">
          <mxGeometry x="50" y="520" width="160" height="100" as="geometry" />
        </mxCell>
        
        <!-- Dashboard Update -->
        <mxCell id="dashboard-update" value="📈 Dashboard Update&#xa;• Real-time refresh&#xa;• Chart regeneration&#xa;• Filter updates" style="rounded=1;whiteSpace=wrap;html=1;fillColor=#dae8fc;strokeColor=#6c8ebf;" vertex="1" parent="1">
          <mxGeometry x="700" y="520" width="160" height="80" as="geometry" />
        </mxCell>
        
        <!-- Success Notification -->
        <mxCell id="success" value="✅ Success Notification&#xa;• Processing complete&#xa;• Record count&#xa;• Performance metrics" style="rounded=1;whiteSpace=wrap;html=1;fillColor=#d5e8d4;strokeColor=#82b366;" vertex="1" parent="1">
          <mxGeometry x="50" y="380" width="160" height="80" as="geometry" />
        </mxCell>
        
        <!-- Flow Arrows -->
        <mxCell id="flow1" style="edgeStyle=orthogonalEdgeStyle;rounded=0;orthogonalLoop=1;jettySize=auto;html=1;startArrow=none;startFill=0;endArrow=classic;endFill=1;" edge="1" parent="1" source="user" target="file-select">
          <mxGeometry relative="1" as="geometry" />
        </mxCell>
        
        <mxCell id="flow2" style="edgeStyle=orthogonalEdgeStyle;rounded=0;orthogonalLoop=1;jettySize=auto;html=1;startArrow=none;startFill=0;endArrow=classic;endFill=1;" edge="1" parent="1" source="file-select" target="size-check">
          <mxGeometry relative="1" as="geometry" />
        </mxCell>
        
        <mxCell id="flow3" style="edgeStyle=orthogonalEdgeStyle;rounded=0;orthogonalLoop=1;jettySize=auto;html=1;startArrow=none;startFill=0;endArrow=classic;endFill=1;" edge="1" parent="1" source="size-check" target="regular-upload">
          <mxGeometry relative="1" as="geometry" />
        </mxCell>
        <mxCell id="flow3-label" value="&lt;50MB" style="edgeLabel;html=1;align=center;verticalAlign=middle;resizable=0;points=[];" vertex="1" connectable="0" parent="flow3">
          <mxGeometry x="-0.1" y="1" relative="1" as="geometry">
            <mxPoint as="offset" />
          </mxGeometry>
        </mxCell>
        
        <mxCell id="flow4" style="edgeStyle=orthogonalEdgeStyle;rounded=0;orthogonalLoop=1;jettySize=auto;html=1;startArrow=none;startFill=0;endArrow=classic;endFill=1;" edge="1" parent="1" source="size-check" target="chunked-upload">
          <mxGeometry relative="1" as="geometry" />
        </mxCell>
        <mxCell id="flow4-label" value=">50MB" style="edgeLabel;html=1;align=center;verticalAlign=middle;resizable=0;points=[];" vertex="1" connectable="0" parent="flow4">
          <mxGeometry x="-0.1" y="1" relative="1" as="geometry">
            <mxPoint as="offset" />
          </mxGeometry>
        </mxCell>
        
        <mxCell id="flow5" style="edgeStyle=orthogonalEdgeStyle;rounded=0;orthogonalLoop=1;jettySize=auto;html=1;startArrow=none;startFill=0;endArrow=classic;endFill=1;" edge="1" parent="1" source="regular-upload" target="validation">
          <mxGeometry relative="1" as="geometry" />
        </mxCell>
        
        <mxCell id="flow6" style="edgeStyle=orthogonalEdgeStyle;rounded=0;orthogonalLoop=1;jettySize=auto;html=1;startArrow=none;startFill=0;endArrow=classic;endFill=1;" edge="1" parent="1" source="chunked-upload" target="validation">
          <mxGeometry relative="1" as="geometry" />
        </mxCell>
        
        <mxCell id="flow7" style="edgeStyle=orthogonalEdgeStyle;rounded=0;orthogonalLoop=1;jettySize=auto;html=1;startArrow=none;startFill=0;endArrow=classic;endFill=1;" edge="1" parent="1" source="validation" target="processing-decision">
          <mxGeometry relative="1" as="geometry" />
        </mxCell>
        
        <mxCell id="flow8" style="edgeStyle=orthogonalEdgeStyle;rounded=0;orthogonalLoop=1;jettySize=auto;html=1;startArrow=none;startFill=0;endArrow=classic;endFill=1;" edge="1" parent="1" source="processing-decision" target="python-service">
          <mxGeometry relative="1" as="geometry" />
        </mxCell>
        <mxCell id="flow8-label" value="Available" style="edgeLabel;html=1;align=center;verticalAlign=middle;resizable=0;points=[];" vertex="1" connectable="0" parent="flow8">
          <mxGeometry x="-0.1" y="1" relative="1" as="geometry">
            <mxPoint as="offset" />
          </mxGeometry>
        </mxCell>
        
        <mxCell id="flow9" style="edgeStyle=orthogonalEdgeStyle;rounded=0;orthogonalLoop=1;jettySize=auto;html=1;startArrow=none;startFill=0;endArrow=classic;endFill=1;" edge="1" parent="1" source="processing-decision" target="nodejs-fallback">
          <mxGeometry relative="1" as="geometry" />
        </mxCell>
        <mxCell id="flow9-label" value="Fallback" style="edgeLabel;html=1;align=center;verticalAlign=middle;resizable=0;points=[];" vertex="1" connectable="0" parent="flow9">
          <mxGeometry x="-0.1" y="1" relative="1" as="geometry">
            <mxPoint as="offset" />
          </mxGeometry>
        </mxCell>
        
        <mxCell id="flow10" style="edgeStyle=orthogonalEdgeStyle;rounded=0;orthogonalLoop=1;jettySize=auto;html=1;startArrow=none;startFill=0;endArrow=classic;endFill=1;" edge="1" parent="1" source="python-service" target="data-processing">
          <mxGeometry relative="1" as="geometry" />
        </mxCell>
        
        <mxCell id="flow11" style="edgeStyle=orthogonalEdgeStyle;rounded=0;orthogonalLoop=1;jettySize=auto;html=1;startArrow=none;startFill=0;endArrow=classic;endFill=1;" edge="1" parent="1" source="nodejs-fallback" target="data-processing">
          <mxGeometry relative="1" as="geometry" />
        </mxCell>
        
        <mxCell id="flow12" style="edgeStyle=orthogonalEdgeStyle;rounded=0;orthogonalLoop=1;jettySize=auto;html=1;startArrow=none;startFill=0;endArrow=classic;endFill=1;" edge="1" parent="1" source="data-processing" target="db-service">
          <mxGeometry relative="1" as="geometry" />
        </mxCell>
        
        <mxCell id="flow13" style="edgeStyle=orthogonalEdgeStyle;rounded=0;orthogonalLoop=1;jettySize=auto;html=1;startArrow=none;startFill=0;endArrow=classic;endFill=1;" edge="1" parent="1" source="db-service" target="mysql-db">
          <mxGeometry relative="1" as="geometry" />
        </mxCell>
        
        <mxCell id="flow14" style="edgeStyle=orthogonalEdgeStyle;rounded=0;orthogonalLoop=1;jettySize=auto;html=1;startArrow=none;startFill=0;endArrow=classic;endFill=1;" edge="1" parent="1" source="mysql-db" target="dashboard-update">
          <mxGeometry relative="1" as="geometry" />
        </mxCell>
        
        <mxCell id="flow15" style="edgeStyle=orthogonalEdgeStyle;rounded=0;orthogonalLoop=1;jettySize=auto;html=1;startArrow=none;startFill=0;endArrow=classic;endFill=1;" edge="1" parent="1" source="data-processing" target="progress">
          <mxGeometry relative="1" as="geometry" />
        </mxCell>
        
        <mxCell id="flow16" style="edgeStyle=orthogonalEdgeStyle;rounded=0;orthogonalLoop=1;jettySize=auto;html=1;startArrow=none;startFill=0;endArrow=classic;endFill=1;" edge="1" parent="1" source="progress" target="success">
          <mxGeometry relative="1" as="geometry" />
        </mxCell>
        
        <mxCell id="flow17" style="edgeStyle=orthogonalEdgeStyle;rounded=0;orthogonalLoop=1;jettySize=auto;html=1;startArrow=none;startFill=0;endArrow=classic;endFill=1;" edge="1" parent="1" source="mysql-db" target="audit">
          <mxGeometry relative="1" as="geometry" />
        </mxCell>
        
        <!-- Performance Metrics -->
        <mxCell id="metrics" value="⚡ Performance Metrics&#xa;• Processing Rate: 5,000-50,000 records/sec&#xa;• File Size Support: Up to 300MB&#xa;• Chunk Size: 10MB for large files&#xa;• Batch Size: 2.5K-10K records&#xa;• Connection Pool: 15 connections&#xa;• Memory Optimization: Vectorized operations" style="text;strokeColor=none;fillColor=#f5f5f5;align=left;verticalAlign=top;spacingLeft=4;spacingRight=4;overflow=hidden;rotatable=0;points=[[0,0.5],[1,0.5]];portConstraint=eastwest;" vertex="1" parent="1">
          <mxGeometry x="50" y="650" width="400" height="120" as="geometry" />
        </mxCell>
        
        <!-- Error Handling -->
        <mxCell id="error-handling" value="🚨 Error Handling&#xa;• File validation errors&#xa;• Processing timeouts&#xa;• Database connection failures&#xa;• Memory overflow protection&#xa;• Automatic rollback on errors&#xa;• Comprehensive error logging" style="text;strokeColor=none;fillColor=#fff2cc;align=left;verticalAlign=top;spacingLeft=4;spacingRight=4;overflow=hidden;rotatable=0;points=[[0,0.5],[1,0.5]];portConstraint=eastwest;" vertex="1" parent="1">
          <mxGeometry x="500" y="650" width="400" height="120" as="geometry" />
        </mxCell>
        
      </root>
    </mxGraphModel>
  </diagram>
</mxfile>